<mxfile host="app.diagrams.net" modified="2023-10-08T08:35:29.099Z" agent="Mozilla/5.0 (Windows NT 10.0; Win64; x64; rv:109.0) Gecko/20100101 Firefox/118.0" etag="GfKIhlM0aJ0nCLiBR7-C" version="21.6.5" type="device">
  <diagram name="Seite-1" id="LdC8rnmi2Jh11xlS057g">
    <mxGraphModel dx="2512" dy="965" grid="1" gridSize="10" guides="1" tooltips="1" connect="1" arrows="1" fold="1" page="1" pageScale="1" pageWidth="827" pageHeight="1169" math="0" shadow="0">
      <root>
        <mxCell id="0" />
        <mxCell id="1" parent="0" />
        <mxCell id="Z2ygmH4dUoYq3m1j7ZEB-1" value="Introductionary event talking about the Batthyany reforms (c.f. Metternich)" style="rounded=0;whiteSpace=wrap;html=1;" vertex="1" parent="1">
          <mxGeometry x="300" y="30" width="120" height="60" as="geometry" />
        </mxCell>
        <mxCell id="Z2ygmH4dUoYq3m1j7ZEB-2" value="Parliamentary Debate:&lt;br&gt;Serfdom" style="rounded=1;whiteSpace=wrap;html=1;" vertex="1" parent="1">
          <mxGeometry x="-40" y="120" width="120" height="60" as="geometry" />
        </mxCell>
        <mxCell id="Z2ygmH4dUoYq3m1j7ZEB-3" value="" style="endArrow=classic;html=1;rounded=0;entryX=0.5;entryY=0;entryDx=0;entryDy=0;exitX=0;exitY=1;exitDx=0;exitDy=0;" edge="1" parent="1" source="Z2ygmH4dUoYq3m1j7ZEB-1" target="Z2ygmH4dUoYq3m1j7ZEB-2">
          <mxGeometry width="50" height="50" relative="1" as="geometry">
            <mxPoint x="360" y="210" as="sourcePoint" />
            <mxPoint x="410" y="160" as="targetPoint" />
          </mxGeometry>
        </mxCell>
        <mxCell id="Z2ygmH4dUoYq3m1j7ZEB-4" value="Support Restorationists" style="rounded=1;whiteSpace=wrap;html=1;" vertex="1" parent="1">
          <mxGeometry x="-180" y="200" width="120" height="60" as="geometry" />
        </mxCell>
        <mxCell id="Z2ygmH4dUoYq3m1j7ZEB-5" value="Support Liberal/Progressives" style="rounded=1;whiteSpace=wrap;html=1;" vertex="1" parent="1">
          <mxGeometry x="90" y="200" width="120" height="60" as="geometry" />
        </mxCell>
        <mxCell id="Z2ygmH4dUoYq3m1j7ZEB-6" value="" style="endArrow=classic;html=1;rounded=0;entryX=0.063;entryY=-0.002;entryDx=0;entryDy=0;entryPerimeter=0;exitX=1;exitY=1;exitDx=0;exitDy=0;" edge="1" parent="1" source="Z2ygmH4dUoYq3m1j7ZEB-2" target="Z2ygmH4dUoYq3m1j7ZEB-5">
          <mxGeometry width="50" height="50" relative="1" as="geometry">
            <mxPoint x="20" y="250" as="sourcePoint" />
            <mxPoint x="70" y="200" as="targetPoint" />
          </mxGeometry>
        </mxCell>
        <mxCell id="Z2ygmH4dUoYq3m1j7ZEB-9" value="" style="endArrow=classic;html=1;rounded=0;entryX=1;entryY=0;entryDx=0;entryDy=0;exitX=0;exitY=1;exitDx=0;exitDy=0;" edge="1" parent="1" source="Z2ygmH4dUoYq3m1j7ZEB-2" target="Z2ygmH4dUoYq3m1j7ZEB-4">
          <mxGeometry width="50" height="50" relative="1" as="geometry">
            <mxPoint x="20" y="250" as="sourcePoint" />
            <mxPoint x="70" y="200" as="targetPoint" />
          </mxGeometry>
        </mxCell>
        <mxCell id="Z2ygmH4dUoYq3m1j7ZEB-11" value="Abolish Landlordism" style="rounded=1;whiteSpace=wrap;html=1;" vertex="1" parent="1">
          <mxGeometry x="90" y="280" width="120" height="60" as="geometry" />
        </mxCell>
        <mxCell id="Z2ygmH4dUoYq3m1j7ZEB-12" value="" style="endArrow=classic;html=1;rounded=0;entryX=0.5;entryY=0;entryDx=0;entryDy=0;exitX=0.5;exitY=1;exitDx=0;exitDy=0;" edge="1" parent="1" source="Z2ygmH4dUoYq3m1j7ZEB-5" target="Z2ygmH4dUoYq3m1j7ZEB-11">
          <mxGeometry width="50" height="50" relative="1" as="geometry">
            <mxPoint x="20" y="300" as="sourcePoint" />
            <mxPoint x="70" y="250" as="targetPoint" />
          </mxGeometry>
        </mxCell>
        <mxCell id="Z2ygmH4dUoYq3m1j7ZEB-14" value="Ignore Landlords&lt;br&gt;(demotion?+unrest for reactionaries)" style="rounded=1;whiteSpace=wrap;html=1;" vertex="1" parent="1">
          <mxGeometry x="90" y="370" width="120" height="60" as="geometry" />
        </mxCell>
        <mxCell id="Z2ygmH4dUoYq3m1j7ZEB-15" value="" style="endArrow=classic;html=1;rounded=0;entryX=0.5;entryY=0;entryDx=0;entryDy=0;exitX=0.5;exitY=1;exitDx=0;exitDy=0;" edge="1" parent="1" source="Z2ygmH4dUoYq3m1j7ZEB-11" target="Z2ygmH4dUoYq3m1j7ZEB-14">
          <mxGeometry width="50" height="50" relative="1" as="geometry">
            <mxPoint x="20" y="370" as="sourcePoint" />
            <mxPoint x="70" y="320" as="targetPoint" />
          </mxGeometry>
        </mxCell>
        <mxCell id="Z2ygmH4dUoYq3m1j7ZEB-17" value="Protect Old Noblity" style="rounded=1;whiteSpace=wrap;html=1;" vertex="1" parent="1">
          <mxGeometry x="-180" y="280" width="120" height="60" as="geometry" />
        </mxCell>
        <mxCell id="Z2ygmH4dUoYq3m1j7ZEB-18" value="" style="endArrow=classic;html=1;rounded=0;entryX=0.5;entryY=0;entryDx=0;entryDy=0;exitX=0.5;exitY=1;exitDx=0;exitDy=0;" edge="1" parent="1" source="Z2ygmH4dUoYq3m1j7ZEB-4" target="Z2ygmH4dUoYq3m1j7ZEB-17">
          <mxGeometry width="50" height="50" relative="1" as="geometry">
            <mxPoint x="380" y="430" as="sourcePoint" />
            <mxPoint x="430" y="380" as="targetPoint" />
          </mxGeometry>
        </mxCell>
        <mxCell id="Z2ygmH4dUoYq3m1j7ZEB-19" value="Compensate Landlords&lt;br&gt;(promotion to capitalists)" style="rounded=1;whiteSpace=wrap;html=1;" vertex="1" parent="1">
          <mxGeometry x="240" y="370" width="120" height="60" as="geometry" />
        </mxCell>
        <mxCell id="Z2ygmH4dUoYq3m1j7ZEB-20" value="" style="endArrow=classic;html=1;rounded=0;entryX=0.5;entryY=0;entryDx=0;entryDy=0;exitX=1;exitY=0.5;exitDx=0;exitDy=0;" edge="1" parent="1" source="Z2ygmH4dUoYq3m1j7ZEB-11">
          <mxGeometry width="50" height="50" relative="1" as="geometry">
            <mxPoint x="-121.68" y="339.52" as="sourcePoint" />
            <mxPoint x="290" y="370" as="targetPoint" />
          </mxGeometry>
        </mxCell>
        <mxCell id="Z2ygmH4dUoYq3m1j7ZEB-21" value="Parliamentary Debate:&lt;br&gt;Feudalist Remnants" style="rounded=1;whiteSpace=wrap;html=1;" vertex="1" parent="1">
          <mxGeometry x="660" y="120" width="120" height="60" as="geometry" />
        </mxCell>
        <mxCell id="Z2ygmH4dUoYq3m1j7ZEB-23" value="+3 to chance for coup" style="rounded=1;whiteSpace=wrap;html=1;" vertex="1" parent="1">
          <mxGeometry x="-180" y="370" width="120" height="60" as="geometry" />
        </mxCell>
        <mxCell id="Z2ygmH4dUoYq3m1j7ZEB-24" value="" style="endArrow=classic;html=1;rounded=0;entryX=0.5;entryY=0;entryDx=0;entryDy=0;exitX=0.5;exitY=1;exitDx=0;exitDy=0;" edge="1" parent="1" source="Z2ygmH4dUoYq3m1j7ZEB-17" target="Z2ygmH4dUoYq3m1j7ZEB-23">
          <mxGeometry width="50" height="50" relative="1" as="geometry">
            <mxPoint x="-10" y="330" as="sourcePoint" />
            <mxPoint x="40" y="280" as="targetPoint" />
          </mxGeometry>
        </mxCell>
        <mxCell id="Z2ygmH4dUoYq3m1j7ZEB-26" value="" style="endArrow=classic;html=1;rounded=0;entryX=0;entryY=0;entryDx=0;entryDy=0;exitX=1;exitY=1;exitDx=0;exitDy=0;" edge="1" parent="1" source="Z2ygmH4dUoYq3m1j7ZEB-1" target="Z2ygmH4dUoYq3m1j7ZEB-21">
          <mxGeometry width="50" height="50" relative="1" as="geometry">
            <mxPoint x="510" y="280" as="sourcePoint" />
            <mxPoint x="560" y="230" as="targetPoint" />
          </mxGeometry>
        </mxCell>
        <mxCell id="Z2ygmH4dUoYq3m1j7ZEB-29" value="Support Restorationists" style="rounded=1;whiteSpace=wrap;html=1;" vertex="1" parent="1">
          <mxGeometry x="450" y="310" width="120" height="60" as="geometry" />
        </mxCell>
        <mxCell id="Z2ygmH4dUoYq3m1j7ZEB-30" value="Support Liberal/Progressives" style="rounded=1;whiteSpace=wrap;html=1;" vertex="1" parent="1">
          <mxGeometry x="600" y="310" width="120" height="60" as="geometry" />
        </mxCell>
        <mxCell id="Z2ygmH4dUoYq3m1j7ZEB-33" value="The Cumania Question" style="rounded=1;whiteSpace=wrap;html=1;" vertex="1" parent="1">
          <mxGeometry x="450" y="200" width="120" height="60" as="geometry" />
        </mxCell>
        <mxCell id="Z2ygmH4dUoYq3m1j7ZEB-35" value="The Matters of Jaszag" style="rounded=1;whiteSpace=wrap;html=1;" vertex="1" parent="1">
          <mxGeometry x="760" y="200" width="120" height="60" as="geometry" />
        </mxCell>
        <mxCell id="Z2ygmH4dUoYq3m1j7ZEB-36" value="The Transylvanian Frontiers" style="rounded=1;whiteSpace=wrap;html=1;" vertex="1" parent="1">
          <mxGeometry x="1080" y="200" width="120" height="60" as="geometry" />
        </mxCell>
        <mxCell id="Z2ygmH4dUoYq3m1j7ZEB-38" value="" style="endArrow=classic;html=1;rounded=0;entryX=0.5;entryY=0;entryDx=0;entryDy=0;exitX=1;exitY=1;exitDx=0;exitDy=0;" edge="1" parent="1" source="Z2ygmH4dUoYq3m1j7ZEB-33" target="Z2ygmH4dUoYq3m1j7ZEB-30">
          <mxGeometry width="50" height="50" relative="1" as="geometry">
            <mxPoint x="620" y="300" as="sourcePoint" />
            <mxPoint x="670" y="250" as="targetPoint" />
          </mxGeometry>
        </mxCell>
        <mxCell id="Z2ygmH4dUoYq3m1j7ZEB-39" value="" style="endArrow=classic;html=1;rounded=0;entryX=0.5;entryY=0;entryDx=0;entryDy=0;exitX=0.5;exitY=1;exitDx=0;exitDy=0;" edge="1" parent="1" source="Z2ygmH4dUoYq3m1j7ZEB-33" target="Z2ygmH4dUoYq3m1j7ZEB-29">
          <mxGeometry width="50" height="50" relative="1" as="geometry">
            <mxPoint x="620" y="300" as="sourcePoint" />
            <mxPoint x="670" y="250" as="targetPoint" />
          </mxGeometry>
        </mxCell>
        <mxCell id="Z2ygmH4dUoYq3m1j7ZEB-41" value="Support Restorationists" style="rounded=1;whiteSpace=wrap;html=1;" vertex="1" parent="1">
          <mxGeometry x="760" y="310" width="120" height="60" as="geometry" />
        </mxCell>
        <mxCell id="Z2ygmH4dUoYq3m1j7ZEB-42" value="Support Liberal/Progressives" style="rounded=1;whiteSpace=wrap;html=1;" vertex="1" parent="1">
          <mxGeometry x="910" y="310" width="120" height="60" as="geometry" />
        </mxCell>
        <mxCell id="Z2ygmH4dUoYq3m1j7ZEB-43" value="Support Restorationists" style="rounded=1;whiteSpace=wrap;html=1;" vertex="1" parent="1">
          <mxGeometry x="1080" y="310" width="120" height="60" as="geometry" />
        </mxCell>
        <mxCell id="Z2ygmH4dUoYq3m1j7ZEB-44" value="Support Liberal/Progressives" style="rounded=1;whiteSpace=wrap;html=1;" vertex="1" parent="1">
          <mxGeometry x="1230" y="310" width="120" height="60" as="geometry" />
        </mxCell>
        <mxCell id="Z2ygmH4dUoYq3m1j7ZEB-45" value="" style="endArrow=classic;html=1;rounded=0;entryX=0.5;entryY=0;entryDx=0;entryDy=0;exitX=1;exitY=1;exitDx=0;exitDy=0;" edge="1" parent="1" source="Z2ygmH4dUoYq3m1j7ZEB-35" target="Z2ygmH4dUoYq3m1j7ZEB-42">
          <mxGeometry width="50" height="50" relative="1" as="geometry">
            <mxPoint x="620" y="300" as="sourcePoint" />
            <mxPoint x="670" y="250" as="targetPoint" />
          </mxGeometry>
        </mxCell>
        <mxCell id="Z2ygmH4dUoYq3m1j7ZEB-46" value="" style="endArrow=classic;html=1;rounded=0;entryX=0.5;entryY=0;entryDx=0;entryDy=0;exitX=0.5;exitY=1;exitDx=0;exitDy=0;" edge="1" parent="1" source="Z2ygmH4dUoYq3m1j7ZEB-35" target="Z2ygmH4dUoYq3m1j7ZEB-41">
          <mxGeometry width="50" height="50" relative="1" as="geometry">
            <mxPoint x="620" y="300" as="sourcePoint" />
            <mxPoint x="670" y="250" as="targetPoint" />
          </mxGeometry>
        </mxCell>
        <mxCell id="Z2ygmH4dUoYq3m1j7ZEB-47" value="" style="endArrow=classic;html=1;rounded=0;entryX=0.5;entryY=0;entryDx=0;entryDy=0;exitX=1;exitY=1;exitDx=0;exitDy=0;" edge="1" parent="1" source="Z2ygmH4dUoYq3m1j7ZEB-36" target="Z2ygmH4dUoYq3m1j7ZEB-44">
          <mxGeometry width="50" height="50" relative="1" as="geometry">
            <mxPoint x="1040" y="350" as="sourcePoint" />
            <mxPoint x="1090" y="300" as="targetPoint" />
          </mxGeometry>
        </mxCell>
        <mxCell id="Z2ygmH4dUoYq3m1j7ZEB-48" value="" style="endArrow=classic;html=1;rounded=0;entryX=0.5;entryY=0;entryDx=0;entryDy=0;exitX=0.5;exitY=1;exitDx=0;exitDy=0;" edge="1" parent="1" source="Z2ygmH4dUoYq3m1j7ZEB-36" target="Z2ygmH4dUoYq3m1j7ZEB-43">
          <mxGeometry width="50" height="50" relative="1" as="geometry">
            <mxPoint x="1040" y="350" as="sourcePoint" />
            <mxPoint x="1090" y="300" as="targetPoint" />
          </mxGeometry>
        </mxCell>
        <mxCell id="Z2ygmH4dUoYq3m1j7ZEB-49" value="Restorationists = keeping feudal remnants+ increased chance for coup" style="rounded=1;whiteSpace=wrap;html=1;" vertex="1" parent="1">
          <mxGeometry x="827" y="120" width="120" height="60" as="geometry" />
        </mxCell>
        <mxCell id="Z2ygmH4dUoYq3m1j7ZEB-50" value="Rest = abolishment" style="rounded=1;whiteSpace=wrap;html=1;" vertex="1" parent="1">
          <mxGeometry x="977" y="120" width="120" height="60" as="geometry" />
        </mxCell>
        <mxCell id="Z2ygmH4dUoYq3m1j7ZEB-51" value="Cuman Uprising + German Reactions" style="rounded=1;whiteSpace=wrap;html=1;" vertex="1" parent="1">
          <mxGeometry x="600" y="410" width="120" height="60" as="geometry" />
        </mxCell>
        <mxCell id="Z2ygmH4dUoYq3m1j7ZEB-52" value="" style="endArrow=classic;html=1;rounded=0;entryX=0.5;entryY=0;entryDx=0;entryDy=0;exitX=0.5;exitY=1;exitDx=0;exitDy=0;" edge="1" parent="1" source="Z2ygmH4dUoYq3m1j7ZEB-30" target="Z2ygmH4dUoYq3m1j7ZEB-51">
          <mxGeometry width="50" height="50" relative="1" as="geometry">
            <mxPoint x="1060" y="320" as="sourcePoint" />
            <mxPoint x="1110" y="270" as="targetPoint" />
          </mxGeometry>
        </mxCell>
      </root>
    </mxGraphModel>
  </diagram>
</mxfile>
